<?xml version="1.0" standalone="no"?>
<!DOCTYPE svg PUBLIC "-//W3C//DTD SVG 20010904//EN"
 "http://www.w3.org/TR/2001/REC-SVG-20010904/DTD/svg10.dtd">
<svg version="1.0" xmlns="http://www.w3.org/2000/svg"
 width="72.000000pt" height="72.000000pt" viewBox="0 0 72.000000 72.000000"
 preserveAspectRatio="xMidYMid meet">
<metadata>
Created by potrace 1.14, written by Peter Selinger 2001-2017
</metadata>
<g transform="translate(0.000000,72.000000) scale(0.100000,-0.100000)"
fill="#000000" stroke="none">
<path d="M214 707 c-140 -52 -222 -177 -211 -319 18 -220 241 -346 445 -251
l34 16 71 -70 c40 -39 81 -73 92 -77 33 -9 60 20 56 62 0 7 -32 44 -71 83 -38
38 -70 71 -70 73 0 2 12 28 27 57 36 69 39 179 6 250 -29 64 -87 126 -147 156
-58 30 -179 40 -232 20z m209 -32 c57 -24 122 -89 148 -148 83 -189 -54 -398
-261 -400 -154 -1 -275 111 -287 266 -10 129 73 252 199 293 52 17 147 12 201
-11z"/>
<path d="M434 586 c-4 -11 -13 -12 -37 -5 -53 15 -63 11 -75 -28 -17 -55 -25
-64 -63 -69 -19 -3 -47 -10 -63 -16 -16 -6 -44 -12 -64 -12 -48 -1 -67 -30
-47 -70 8 -16 15 -39 15 -52 0 -13 15 -38 35 -58 67 -67 202 -84 295 -36 45
23 80 64 80 94 0 11 7 30 15 40 32 42 5 89 -49 85 -17 -2 -59 5 -92 15 l-62
19 9 30 c5 17 12 34 17 39 14 14 71 -3 77 -22 3 -10 13 -21 22 -24 19 -8 63
19 63 39 0 35 -64 62 -76 31z m-7 -145 c121 -69 63 -195 -96 -208 -76 -7 -137
11 -178 52 -57 57 -36 127 51 166 59 26 167 21 223 -10z"/>
<path d="M210 391 c-7 -15 -6 -24 6 -36 19 -18 33 -16 48 7 7 12 6 21 -3 32
-18 22 -38 20 -51 -3z"/>
<path d="M351 392 c-21 -39 29 -67 53 -29 7 11 6 20 -3 31 -18 21 -38 20 -50
-2z"/>
<path d="M230 287 c0 -23 96 -35 131 -17 34 19 20 25 -56 25 -41 0 -75 -3 -75
-8z"/>
</g>
</svg>
